<?xml version="1.0" encoding="UTF-8"?><svg id="CONTOURS" xmlns="http://www.w3.org/2000/svg" viewBox="0 0 368.5 368.5"><defs><style>.cls-1,.cls-2,.cls-3{fill:none;stroke:#c19f0f;stroke-miterlimit:10;}.cls-2{stroke-linecap:round;}.cls-2,.cls-3{stroke-width:1.2px;}</style></defs><path class="cls-3" d="M184.25,194.18h9.1s3.56,.17,3.56-3.83h-12.66"/><line class="cls-3" x1="184.25" y1="184.6" x2="196.91" y2="184.6"/><path class="cls-3" d="M196.91,184.6c1.74,0,3.16,1.29,3.16,2.88s-1.41,2.88-3.16,2.88"/><path class="cls-3" d="M184.25,175.63h10.66s2,.01,2-1.92h-12.66"/><path class="cls-3" d="M184.25,178.6h9.08s1.57-.82,1.57-1.98h-10.66"/><line class="cls-3" x1="184.25" y1="167.96" x2="196.91" y2="167.96"/><path class="cls-3" d="M196.91,167.96c1.74,0,3.16,1.29,3.16,2.88s-1.41,2.88-3.16,2.88"/><line class="cls-3" x1="201.83" y1="159.56" x2="184.25" y2="159.56"/><path class="cls-3" d="M201.83,153.81c1.59,0,2.88,1.29,2.88,2.88s-1.29,2.88-2.88,2.88"/><line class="cls-3" x1="201.83" y1="153.81" x2="184.25" y2="153.81"/><path class="cls-3" d="M184.25,149.81h16.42s1.25-.08,1.25,1.16v2.83"/><path class="cls-2" d="M192.86,194.18s-.44,1.49-1.22,1.49v141.75h-7.39v-46.92"/><path class="cls-2" d="M191.64,195.67h-3.25s-2.02-.04-2.02,2.13v29.97"/><path class="cls-2" d="M177.48,195.67h3.25s2.02-.04,2.02,2.13v56.12"/><path class="cls-3" d="M191.64,337.43s1.69,2.32,3.7,2.96c0,0,1.69,.56,1.69,2.49s-1.32,3.29-4.3,4.1-8.47,.7-8.47,.7"/><path class="cls-3" d="M184.25,341.48s13.26,.37,11.49-.9"/><path class="cls-3" d="M200.24,159.56s-5.25,.54-5.25,3.63c0,.9-.43,4.78,1.45,4.78"/><path class="cls-3" d="M193.66,178.4s-.87,.47-.87,1.67v2.86s.34,1.67,3.41,1.67"/><path class="cls-2" d="M184.25,141.74h9.57s-5.17-.1-5.62-5.14,5.62-8.21,5.62-8.21c0,0,3.15-2.13,0-3.88-3.11-1.71-6.59-.9-6.84-4.26h-2.73"/><path class="cls-3" d="M200.68,149.81s-.6-5.7-3.77-5.7h-12.66"/><path class="cls-3" d="M199.35,145.68s.22-1.57,1.63-1.57,2.37-1.29,2.29-2.2-.16-3.16,.83-4.53,1.33-2.41,1.29-3.16c1.25,0,31.27,.67,37.38-33.85,0,0,5.25-.67,5.25-3.5,0,0,.65-6.22-2.9-7.67,0,0-3.52-1.59-4.78-1.97-1.38-.42-1.5-2.53-1.5-2.53,0,0-.87-4.39-2.59-5.84,0,0-.66-.87,.93-1.38s3.85-3.49,3.85-3.49c0,0,1.2-1.68-.87-2.14s-4.15-2.56-4.15-2.56c0,0-2.17-2.38-4.45-3.28,0,0-2.86-1.02-6.02-.48,0,0-.96,.21-1.96-.6,0,0-1.53-.99-.6-2.17s2.68-3.94,.3-6.89c0,0-1.14-1.86-4.24-1.8,0,0-.51,.03-.51-.84s-.45-2.65-2.23-3.34c-.33-.33-.81-.51-.81-1.32s-1.06-5.26-5.07-5.8c0,0-4.34-.7-5.21,3.59,0,0-.12,.41-.7,.41s-1.9-.33-2.73,.7-1.36,1.86-2.11,2.11-1.57,1.61-1.82,2.64c0,0-.3,.72-1.24,.45-.83-.08-2.85-1.08-2.85-1.08,0,0-.71-.59-.71-1.61s-.38-5.42,2.07-6.54c0,0,.51-.21,1.23-.21s6.94,.2,7.01-3.39c.07-3.59-.71-4.87-3.24-6.48,0,0-.55-.22-.7-.55s-1.28-2.57-4.55-3.08c0,0-.95-.11-.95-1.14s-2.13-7.78-9.68-7.78"/><path class="cls-3" d="M184.25,74.3h2.95s.97,.29,1.51,1.39,1.55,3.36,1.55,3.36c0,0,1.01,2.06-1.72,2.06h-4.3"/><path class="cls-2" d="M242.69,97.01s.46,.19,1.35-.04,1.14-1.42,1.06-2.55-1.15-1.57-1.15-1.57c-7.06-3.34-6.6,6.53-6.6,6.53-.18,11.22-6.1,17.68-6.1,17.68-12.7,14.71-26.02,11.9-27.62,11.93-2.08-.15-1.99-1.45-2.04-2.3,0-1.45,1.48-1.66,1.48-1.66,4.16,0,7.38,.16,10.61-.59,17.87-4.84,19.27-18.63,19.7-21.21-3.66-.11-4.52-8.51-4.52-10.23-4.09-22.39-20.28-20.91-22.08-20.89s-1.31,1.04-1.31,1.04c3.26,4.81,.51,7.77-.94,8.47-8.99,4.59-11.61-2.09-11.99-3.26-3.47-10.15,7.99-14.62,7.99-14.62,13.25-4.31,25.24,5.15,25.24,5.15,0,0,1.2,.78,1.88-.31,.42-.66,2.91-.51,4.52,.7,1.89,1.42,2.44,3.22,2.44,3.22,0,0,.98,2.33-1.18,4.69"/><path class="cls-2" d="M234.7,93.98s1.47-10.14-2.94-14.46c0,0-1.11,.44-2.36,0s-2.92-2.05-3.16-3.09,.18-2.99-1.43-4.53-7.65-6.54-15.8-6.09-10.88,3.74-12.16,6.16c0,0-2.37,5.18,2.3,6.65"/><path class="cls-2" d="M205.34,81.11h9.7s1.52,.09,1.52,2.15v26.51s.07,1.92-1.92,1.92h-30.39"/><path class="cls-2" d="M184.25,109.42h28.63s1.08-.13,1.08-1.61v-22.87s.13-1.58-1.58-1.58h-28.13"/><path class="cls-2" d="M206,125.06s-2.79-1.35-1.29-3.71c1.5-2.36,.56-6.41-3.44-6.62-4-.21-6.71,1.55-8.9,4.3-2.19,2.75-2.88,.3-2.88-.43v-6.92"/><circle class="cls-2" cx="233.6" cy="97.51" r="1.53"/><circle class="cls-2" cx="230.43" cy="73.83" r="1.93"/><circle class="cls-2" cx="204.49" cy="51.64" r="1.93"/><circle class="cls-2" cx="197.59" cy="134.59" r="1.93"/><circle class="cls-2" cx="200.45" cy="118.87" r="1.69"/><path class="cls-2" d="M196.37,141.74s6.27-3.48,6.31-7.2-2.63-4.33-2.63-4.33c0,0-4.81-1.35-8.15,3.83"/><path class="cls-2" d="M201.21,122.86s-3.61,1.88-7.41-1.33"/><path class="cls-2" d="M184.25,71.9s4.14,.06,5.01-1.94,5.07-6.19,5.63-6.69,5.44-4.38-.44-5.76c-5.88-1.38-7.16-6.35-7.16-6.63s-.48-2.15-3.04-2.07"/><path class="cls-2" d="M215.08,57.34s3.16-.94,4.95-.23,2.35,2.28,1.34,3.29-3.45,1.79-6.9,.84c-2.81-.78-9.39-1.17-11.77-.45-2.37,.72-3.68-3.42-3.1-6.26"/><path class="cls-2" d="M207.36,47.63s.17-2.73,2.68-2.73,3,2.83,3.2,3.92-.09,4.16-1.34,5.72"/><path class="cls-2" d="M201.09,39.38s-1.36,1.58-4.68,1.55-5.78-.4-6.52-1.77-2.05-3.14-3.03-3.68-2.62-.6-2.62-.6"/><path class="cls-2" d="M184.25,22.92s7.07,1.36,7.11,6.42c0,0,.29,1.61-2.12,1.61h-4.99"/><path class="cls-2" d="M190.59,51.06s0-6.87,1.35-8.39"/><path class="cls-2" d="M188.02,47.32l.27-5.25s0-4.34-4.04-5.13"/><line class="cls-2" x1="185.68" y1="41.65" x2="185.68" y2="44.9"/><line class="cls-2" x1="194.99" y1="163.19" x2="184.25" y2="163.19"/><line class="cls-2" x1="190.58" y1="163.19" x2="190.58" y2="167.96"/><line class="cls-2" x1="188.37" y1="163.19" x2="188.37" y2="167.96"/><line class="cls-2" x1="192.79" y1="163.19" x2="192.79" y2="167.96"/><line class="cls-2" x1="190.58" y1="179.11" x2="190.58" y2="183.89"/><line class="cls-2" x1="188.37" y1="179.11" x2="188.37" y2="183.89"/><path class="cls-2" d="M184.25,67.83s4.41-.44,5.05-3.42,1.71-3.96,1.71-3.96c0,0,1.86-1.77-2.18-2.75-3.2-.77-3.29-2.18-3.29-2.18"/><line class="cls-2" x1="189.03" y1="27.58" x2="189.03" y2="29.04"/><line class="cls-2" x1="186.1" y1="25.37" x2="186.1" y2="29.35"/><path class="cls-2" d="M199.11,37.28s-3.33,.98-5.46,.17-3.26-2.74-3.38-3.09-.19-1.64,2.4-1.69"/><path class="cls-3" d="M184.25,194.18h-9.1s-3.56,.17-3.56-3.83h12.66"/><line class="cls-3" x1="184.25" y1="184.6" x2="171.59" y2="184.6"/><path class="cls-3" d="M171.59,184.6c-1.74,0-3.16,1.29-3.16,2.88s1.41,2.88,3.16,2.88"/><path class="cls-3" d="M184.25,175.63h-10.66s-2,.01-2-1.92h12.66"/><path class="cls-3" d="M184.25,178.6h-9.08s-1.57-.82-1.57-1.98h10.66"/><line class="cls-3" x1="184.25" y1="167.96" x2="171.59" y2="167.96"/><path class="cls-3" d="M171.59,167.96c-1.74,0-3.16,1.29-3.16,2.88s1.41,2.88,3.16,2.88"/><line class="cls-3" x1="166.67" y1="159.56" x2="184.25" y2="159.56"/><path class="cls-3" d="M166.67,153.81c-1.59,0-2.88,1.29-2.88,2.88s1.29,2.88,2.88,2.88"/><line class="cls-3" x1="166.67" y1="153.81" x2="184.25" y2="153.81"/><path class="cls-3" d="M184.25,149.81h-16.42s-1.25-.08-1.25,1.16v2.83"/><path class="cls-3" d="M175.65,194.18s.44,1.49,1.22,1.49v141.75h7.39"/><line class="cls-3" x1="176.86" y1="195.67" x2="180.12" y2="195.67"/><path class="cls-3" d="M176.86,337.43s-1.69,2.32-3.7,2.96c0,0-1.69,.56-1.69,2.49,0,1.93,1.32,3.29,4.3,4.1,2.88,.79,8.47,.7,8.47,.7"/><path class="cls-3" d="M184.25,341.48s-13.26,.37-11.49-.9"/><path class="cls-3" d="M168.26,159.56s5.25,.54,5.25,3.63c0,.9,.43,4.78-1.45,4.78"/><path class="cls-3" d="M174.84,178.4s.87,.47,.87,1.67v2.86s-.34,1.67-3.41,1.67"/><path class="cls-2" d="M184.25,141.74h-9.57s5.17-.1,5.62-5.14-5.62-8.21-5.62-8.21c0,0-3.15-2.13,0-3.88,3.11-1.71,6.59-.9,6.84-4.26h2.73"/><path class="cls-3" d="M167.83,149.81s.6-5.7,3.77-5.7h12.66"/><path class="cls-3" d="M169.15,145.68s-.22-1.57-1.63-1.57-2.37-1.29-2.29-2.2,.16-3.16-.83-4.53-1.33-2.41-1.29-3.16c-1.25,0-31.27,.67-37.38-33.85,0,0-5.25-.67-5.25-3.5,0,0-.65-6.22,2.9-7.67,0,0,3.52-1.59,4.78-1.97,1.38-.42,1.5-2.53,1.5-2.53,0,0,.87-4.39,2.59-5.84,0,0,.66-.87-.93-1.38s-3.85-3.49-3.85-3.49c0,0-1.2-1.68,.87-2.14s4.15-2.56,4.15-2.56c0,0,2.17-2.38,4.45-3.28,0,0,2.86-1.02,6.02-.48,0,0,.96,.21,1.96-.6,0,0,1.53-.99,.6-2.17s-2.68-3.94-.3-6.89c0,0,1.14-1.86,4.24-1.8,0,0,.51,.03,.51-.84s.45-2.65,2.23-3.34c.33-.33,.81-.51,.81-1.32,0-.81,1.06-5.26,5.07-5.8,0,0,4.34-.7,5.21,3.59,0,0,.12,.41,.7,.41s1.9-.33,2.73,.7c.83,1.03,1.36,1.86,2.11,2.11s1.57,1.61,1.82,2.64c0,0,.3,.72,1.24,.45,.83-.08,2.85-1.08,2.85-1.08,0,0,.71-.59,.71-1.61s.38-5.42-2.07-6.54c0,0-.51-.21-1.23-.21s-6.94,.2-7.01-3.39,.71-4.87,3.24-6.48c0,0,.55-.22,.7-.55s1.28-2.57,4.55-3.08c0,0,.95-.11,.95-1.14s2.13-7.78,9.68-7.78"/><path class="cls-3" d="M184.25,74.3h-2.95s-.97,.29-1.51,1.39-1.55,3.36-1.55,3.36c0,0-1.01,2.06,1.72,2.06h4.3"/><path class="cls-2" d="M125.81,97.01s-.46,.19-1.35-.04-1.14-1.42-1.06-2.55,1.15-1.57,1.15-1.57c7.06-3.34,6.6,6.53,6.6,6.53,.18,11.22,6.1,17.68,6.1,17.68,12.7,14.71,26.02,11.9,27.62,11.93,2.08-.15,1.99-1.45,2.04-2.3,0-1.45-1.48-1.66-1.48-1.66-4.16,0-7.38,.16-10.61-.59-17.87-4.84-19.27-18.63-19.7-21.21,3.66-.11,4.52-8.51,4.52-10.23,4.09-22.39,20.28-20.91,22.08-20.89s1.31,1.04,1.31,1.04c-3.26,4.81-.51,7.77,.94,8.47,8.99,4.59,11.61-2.09,11.99-3.26,3.47-10.15-7.99-14.62-7.99-14.62-13.25-4.31-25.24,5.15-25.24,5.15,0,0-1.2,.78-1.88-.31-.42-.66-2.91-.51-4.52,.7-1.89,1.42-2.44,3.22-2.44,3.22,0,0-.98,2.33,1.18,4.69"/><path class="cls-2" d="M133.8,93.98s-1.47-10.14,2.94-14.46c0,0,1.11,.44,2.36,0s2.92-2.05,3.16-3.09-.18-2.99,1.43-4.53,7.65-6.54,15.8-6.09,10.88,3.74,12.16,6.16c0,0,2.37,5.18-2.3,6.65"/><path class="cls-2" d="M163.17,81.11h-9.7s-1.52,.09-1.52,2.15v26.51s-.07,1.92,1.92,1.92h30.39"/><path class="cls-2" d="M184.25,109.42h-28.63s-1.08-.13-1.08-1.61v-22.87s-.13-1.58,1.58-1.58h28.13"/><path class="cls-2" d="M162.5,125.06s2.79-1.35,1.29-3.71c-1.5-2.36-.56-6.41,3.44-6.62s6.71,1.55,8.9,4.3,2.88,.3,2.88-.43v-6.92"/><circle class="cls-2" cx="134.9" cy="97.51" r="1.53"/><circle class="cls-2" cx="138.07" cy="73.83" r="1.93"/><circle class="cls-2" cx="164.01" cy="51.64" r="1.93"/><circle class="cls-2" cx="170.91" cy="134.59" r="1.93"/><circle class="cls-2" cx="168.05" cy="118.87" r="1.69"/><path class="cls-2" d="M172.14,141.74s-6.27-3.48-6.31-7.2,2.63-4.33,2.63-4.33c0,0,4.81-1.35,8.15,3.83"/><path class="cls-2" d="M167.29,122.86s3.61,1.88,7.41-1.33"/><path class="cls-2" d="M184.25,71.9s-4.14,.06-5.01-1.94-5.07-6.19-5.63-6.69-5.44-4.38,.44-5.76,7.16-6.35,7.16-6.63,.48-2.15,3.04-2.07"/><path class="cls-2" d="M153.42,57.34s-3.16-.94-4.95-.23-2.35,2.28-1.34,3.29,3.45,1.79,6.9,.84c2.81-.78,9.39-1.17,11.77-.45,2.37,.72,3.68-3.42,3.1-6.26"/><path class="cls-2" d="M161.14,47.63s-.17-2.73-2.68-2.73-3,2.83-3.2,3.92,.09,4.16,1.34,5.72"/><path class="cls-2" d="M167.41,39.38s1.36,1.58,4.68,1.55c3.31-.04,5.78-.4,6.52-1.77s2.05-3.14,3.03-3.68,2.62-.6,2.62-.6"/><path class="cls-2" d="M184.25,22.92s-7.07,1.36-7.11,6.42c0,0-.29,1.61,2.12,1.61h4.99"/><path class="cls-2" d="M177.92,51.06s0-6.87-1.35-8.39"/><path class="cls-2" d="M180.48,47.32l-.27-5.25s0-4.34,4.04-5.13"/><line class="cls-2" x1="182.82" y1="41.65" x2="182.82" y2="44.9"/><line class="cls-2" x1="173.52" y1="163.19" x2="184.25" y2="163.19"/><line class="cls-2" x1="177.92" y1="163.19" x2="177.92" y2="167.96"/><line class="cls-2" x1="180.13" y1="163.19" x2="180.13" y2="167.96"/><line class="cls-2" x1="175.71" y1="163.19" x2="175.71" y2="167.96"/><line class="cls-2" x1="177.92" y1="179.11" x2="177.92" y2="183.89"/><line class="cls-2" x1="180.13" y1="179.11" x2="180.13" y2="183.89"/><path class="cls-2" d="M184.25,67.83s-4.41-.44-5.05-3.42c-.64-2.99-1.71-3.96-1.71-3.96,0,0-1.86-1.77,2.18-2.75,3.2-.77,3.29-2.18,3.29-2.18"/><line class="cls-2" x1="179.47" y1="27.58" x2="179.47" y2="29.04"/><line class="cls-2" x1="182.4" y1="25.37" x2="182.4" y2="29.35"/><path class="cls-2" d="M169.39,37.28s3.33,.98,5.46,.17,3.26-2.74,3.38-3.09,.19-1.64-2.4-1.69"/><line class="cls-2" x1="179.31" y1="252.15" x2="179.31" y2="287.77"/><line class="cls-2" x1="189.31" y1="282.01" x2="189.31" y2="320.52"/><line class="cls-2" x1="180.12" y1="313.39" x2="180.12" y2="331.73"/><line class="cls-2" x1="185.03" y1="264.05" x2="185.03" y2="271.66"/><line class="cls-2" x1="188.55" y1="248.53" x2="188.55" y2="267.12"/><line class="cls-2" x1="184.25" y1="125.06" x2="184.25" y2="137.97"/><line class="cls-2" x1="184.25" y1="117.52" x2="184.25" y2="114.16"/><line class="cls-2" x1="184.25" y1="64.77" x2="184.25" y2="58.72"/><line class="cls-2" x1="184.25" y1="79.01" x2="184.25" y2="76.61"/><path class="cls-2" d="M176.86,280.29s.12,3.21-2.8,3.21h-23.67v2.64"/><polyline class="cls-2" points="145 286.47 145 283.55 133.74 283.55 133.74 304.2 140.17 304.2 140.17 313.39 133.74 313.39 133.74 333.6 144.95 333.6 144.95 329.24"/><path class="cls-2" d="M152.3,329.08v4.52h7.35v-6.92h6.07v6.92h8.71s2.45-.43,2.45,2.35"/><path class="cls-2" d="M150.46,286.25c1.71,.89,2.87,2.68,2.87,4.74,0,2.96-2.4,5.35-5.35,5.35s-5.35-2.4-5.35-5.35c0-1.83,.92-3.45,2.33-4.41"/><path class="cls-2" d="M144.92,329.05c-1.23-1.05-2.01-2.61-2.01-4.35,0-3.16,2.56-5.72,5.72-5.72s5.72,2.56,5.72,5.72c0,1.76-.79,3.33-2.04,4.38"/><polyline class="cls-2" points="163.46 324.42 168.26 324.42 168.26 330.13"/><line class="cls-2" x1="174.91" y1="329.08" x2="174.91" y2="309.18"/><rect class="cls-2" x="152.3" y="303.14" width="18.9" height="10.79"/><polyline class="cls-2" points="157.88 300.61 149.81 300.61 149.81 308.53"/><line class="cls-2" x1="176.86" y1="287.28" x2="167" y2="287.28"/><line class="cls-2" x1="176.87" y1="289.71" x2="167" y2="289.71"/><polyline class="cls-2" points="142.02 285.46 135.54 285.46 135.54 302.09"/><line class="cls-2" x1="144.95" y1="331.78" x2="135.54" y2="331.78"/><line class="cls-2" x1="190.71" y1="126.85" x2="187.67" y2="126.85"/><line class="cls-2" x1="180.84" y1="126.85" x2="177.79" y2="126.85"/><path class="cls-1" d="M162.09,87.63s6.15,.37,9.35,0v.61s-3.27,.06-3.27,2.48v12.62s5.12,1.11,7.84-1.85c.6-.66,1.53-2.01,1.87-2.77l.64,.28s-1.58,3.16-2.02,5.49c-2.3,0-8.33-.28-14.46,0v-.61s2.71,.16,2.71-1.51,0-11.65,0-11.65c0,0,.3-2.3-2.66-2.48v-.61Z"/><path class="cls-1" d="M205.07,92.41s-.35-1.15-.18-4.78c-.32,0-9.68,.33-15.18,0v.66s2.68-.01,2.62,2.02v11.53s.27,2.04-2.62,2.04v.61s9.35-.28,15.33,0c.14-.57,1.17-3.33,2.22-5.49-.25-.19-.49-.36-.49-.36,0,0-1.96,4.31-6.84,4.82,0,0-1.56,.23-4.15-.3v-7.59h1.22s3.55-.19,4.17,3.32h.5s-.22-4.67,0-7.28h-.51s-.53,3.26-4.06,3.19h-1.33v-6.21h2.61s3.19-.14,4.64,1.39c0,0,1.09,1.09,1.47,2.52l.56-.1Z"/><circle class="cls-1" cx="184.25" cy="95.5" r="3.1"/><circle class="cls-1" cx="184.25" cy="95.5" r="1.62"/></svg>